<svg id="Group_33" data-name="Group 33" xmlns="http://www.w3.org/2000/svg" width="24" height="24" viewBox="0 0 24 24">
  <path id="Path_26" data-name="Path 26" d="M0,0H24V24H0Z" fill="none"/>
  <path id="gym" d="M15.446,4.615l-1.469-1.47.638-.638a.673.673,0,1,0-.952-.952l-.637.638L11.555.724a2.491,2.491,0,0,0-3.437,0,2.43,2.43,0,0,0,0,3.438L9.587,5.631,5.619,9.6,4.149,8.13a2.491,2.491,0,0,0-3.437,0,2.43,2.43,0,0,0,0,3.438l1.469,1.469-.638.638a.673.673,0,1,0,.952.952l.637-.638L4.6,15.458A2.43,2.43,0,1,0,8.04,12.021L6.571,10.552l3.972-3.969,1.469,1.469a2.43,2.43,0,0,0,3.437-3.437ZM7.406,13.74a1.077,1.077,0,0,1-.318.766,1.109,1.109,0,0,1-1.533,0L1.664,10.615A1.084,1.084,0,1,1,3.2,9.082l3.891,3.891a1.077,1.077,0,0,1,.318.767ZM14.494,7.1a1.109,1.109,0,0,1-1.533,0L9.07,3.209A1.084,1.084,0,1,1,10.6,1.676l3.891,3.891a1.083,1.083,0,0,1,0,1.533Z" transform="translate(4 3.963)" fill="#615ea3"/>
</svg>
