<svg xmlns="http://www.w3.org/2000/svg" width="80" height="79.999" viewBox="0 0 80 79.999">
  <g id="Group_52" data-name="Group 52" transform="translate(-96 -528.001)">
    <path id="Path_77" data-name="Path 77" d="M292.455,486.239c11.923-4.832,26.017-18.925,30.8-30.847a21.64,21.64,0,0,0,1.639-7.534,21.627,21.627,0,0,0,1.64,7.534c4.786,11.922,18.969,26.06,30.847,30.847a21.639,21.639,0,0,0,7.535,1.639,21.641,21.641,0,0,0-7.535,1.64c-11.878,4.787-26.061,18.925-30.847,30.8a21.627,21.627,0,0,0-1.64,7.534,21.641,21.641,0,0,0-1.639-7.534c-4.786-11.878-18.881-26.016-30.8-30.8a21.638,21.638,0,0,0-7.534-1.64A21.636,21.636,0,0,0,292.455,486.239Z" transform="translate(-188.921 80.145)" fill="#6ac7bb"/>
    <g id="Group_1" data-name="Group 1" transform="translate(122 558)">
      <path id="Path_1" data-name="Path 1" d="M.82,20H11.364a.818.818,0,0,0,.82-.817V8.688a.818.818,0,0,0-.82-.817H6.913V.817A.819.819,0,0,0,6.092,0H3.456a.82.82,0,0,0-.778.558L.042,8.43A.809.809,0,0,0,0,8.688v10.5A.818.818,0,0,0,.82,20Zm0,0" transform="translate(15.816)" fill="#fff"/>
      <path id="Path_2" data-name="Path 2" d="M290.019,20h10.544a.818.818,0,0,0,.82-.817V8.688a.818.818,0,0,0-.82-.817h-4.452V.817a.819.819,0,0,0-.82-.817h-2.636a.82.82,0,0,0-.778.558L289.241,8.43a.815.815,0,0,0-.042.258v10.5A.818.818,0,0,0,290.019,20Zm0,0" transform="translate(-289.199)" fill="#fff"/>
    </g>
  </g>
</svg>
